<?xml version="1.0" standalone="no"?><!DOCTYPE svg PUBLIC "-//W3C//DTD SVG 1.1//EN" "http://www.w3.org/Graphics/SVG/1.1/DTD/svg11.dtd"><svg t="1614004587796" class="icon" viewBox="0 0 1024 1024" version="1.1" xmlns="http://www.w3.org/2000/svg" p-id="22174" xmlns:xlink="http://www.w3.org/1999/xlink" width="22" height="22"><defs><style type="text/css"></style></defs><path d="M333.37344 865.06666667c-39.6032 0-71.68 32.07679999-71.68 71.68s32.07679999 71.68 71.68 71.68000001 71.68-32.07679999 71.67999999-71.68000001S372.97664 865.06666667 333.37344 865.06666667L333.37344 865.06666667z" p-id="22175" fill="#515151"></path><path d="M835.13344 865.06666667c-39.6032 0-71.68 32.07679999-71.67999999 71.68s32.07679999 71.68 71.67999999 71.68000001 71.68-32.07679999 71.68-71.68000001S874.73664001 865.06666667 835.13344 865.06666667L835.13344 865.06666667z" p-id="22176" fill="#515151"></path><path d="M906.24 829.22666667L324.09087999 829.22666667c-51.64544 0-97.05472-40.8576-103.36255999-93.0048l-60.78463999-427.9296-34.58560001-199.9872C123.20768 90.85098667 107.29472 76.58666667 91.74016 76.58666667L46.08000001 76.58666667C26.29632 76.58666667 10.23999999 60.53034667 10.23999999 40.74666668s16.05632-35.84 35.84000002-35.84000002l45.66015999 0c52.29056 0 98.20159999 40.8576 104.54528 93.00480001l34.51392 199.23455999 61.03551999 429.75744001C293.84192 743.53322667 308.89472 757.54666667 324.09087999 757.54666667L906.24 757.54666667c19.81951999 0 35.84 16.02048 35.84 35.84S926.05952 829.22666667 906.24 829.22666667z" p-id="22177" fill="#515151"></path><path d="M368.89088 685.86666668c-18.60096 0-34.33471999-14.33599999-35.69664-33.22368-1.46944001-19.74784 13.36831999-36.91519999 33.08032-38.34880001l486.20544001-35.83999999c17.84832-0.10752 32.90112-14.12096 34.87231999-30.06976001l56.448-322.99008c1.43359999-12.04224-1.89952-25.23136-9.10336001-33.40288001C930.0736 186.75882667 924.26752 184.10666667 917.49376 184.10666667L296.96 184.10666667C277.17632 184.10666667 261.12 168.05034667 261.12 148.26666667s16.05632-35.84 35.84-35.84l620.53376 0c27.38176 0 52.54144 11.36128 70.85568 32.04096 20.93056 23.61856 30.53568 56.91391999 26.34239999 91.42784001l-56.48383999 323.02591999C952.11519999 609.16906667 906.74176 650.02666666 855.09632 650.02666666l-483.55327999 35.73248001C370.64704 685.83082666 369.75104 685.86666668 368.89088 685.86666668z" p-id="22178" fill="#515151"></path></svg>