<?xml version="1.0" standalone="no"?><!DOCTYPE svg PUBLIC "-//W3C//DTD SVG 1.1//EN" "http://www.w3.org/Graphics/SVG/1.1/DTD/svg11.dtd"><svg t="1614003743247" class="icon" viewBox="0 0 1024 1024" version="1.1" xmlns="http://www.w3.org/2000/svg" p-id="16809" xmlns:xlink="http://www.w3.org/1999/xlink" width="22" height="22"><defs><style type="text/css"></style></defs><path d="M512 85.333c235.637 0 426.667 191.03 426.667 426.667S747.637 938.667 512 938.667 85.333 747.637 85.333 512 276.363 85.333 512 85.333z m0 64c-200.299 0-362.667 162.368-362.667 362.667S311.701 874.667 512 874.667 874.667 712.299 874.667 512 712.299 149.333 512 149.333z m149.163 158.902a42.667 42.667 0 0 1 54.602 54.602L637.643 579.84a96 96 0 0 1-57.814 57.803l-216.992 78.122a42.667 42.667 0 0 1-54.602-54.602l78.122-217.003a96 96 0 0 1 57.814-57.803z m-20.971 75.573l-174.347 62.763a32 32 0 0 0-19.274 19.274l-62.763 174.347 174.347-62.763a32 32 0 0 0 19.274-19.274l62.763-174.347z" p-id="16810"></path></svg>