<?xml version="1.0" standalone="no"?><!DOCTYPE svg PUBLIC "-//W3C//DTD SVG 1.1//EN" "http://www.w3.org/Graphics/SVG/1.1/DTD/svg11.dtd"><svg t="1614003929338" class="icon" viewBox="0 0 1024 1024" version="1.1" xmlns="http://www.w3.org/2000/svg" p-id="17715" xmlns:xlink="http://www.w3.org/1999/xlink" width="22" height="22"><defs><style type="text/css"></style></defs><path d="M405.333333 565.333333H200.533333c-14.933333 0-27.733333 4.266667-36.266666 14.933334-10.666667 10.666667-14.933333 21.333333-14.933334 36.266666v204.8c0 14.933333 4.266667 27.733333 14.933334 36.266667 10.666667 10.666667 21.333333 14.933333 36.266666 14.933333H405.333333c14.933333 0 27.733333-4.266667 38.4-14.933333 10.666667-10.666667 14.933333-23.466667 14.933334-36.266667v-204.8c0-14.933333-4.266667-27.733333-14.933334-36.266666-12.8-10.666667-25.6-14.933333-38.4-14.933334zM405.333333 192H200.533333c-14.933333 0-25.6 4.266667-36.266666 14.933333s-14.933333 21.333333-14.933334 36.266667V448c0 14.933333 4.266667 27.733333 14.933334 38.4 10.666667 10.666667 21.333333 14.933333 36.266666 14.933333H405.333333c14.933333 0 27.733333-4.266667 38.4-14.933333 10.666667-10.666667 14.933333-23.466667 14.933334-38.4v-204.8c0-14.933333-4.266667-27.733333-14.933334-36.266667-12.8-10.666667-25.6-14.933333-38.4-14.933333z m373.333334 373.333333H576c-14.933333 0-27.733333 4.266667-38.4 14.933334-10.666667 10.666667-14.933333 23.466667-14.933333 36.266666v204.8c0 14.933333 4.266667 27.733333 14.933333 36.266667 10.666667 10.666667 23.466667 14.933333 38.4 14.933333h202.666667c14.933333 0 27.733333-4.266667 36.266666-14.933333 10.666667-10.666667 14.933333-23.466667 14.933334-36.266667v-204.8c0-14.933333-4.266667-27.733333-14.933334-36.266666-10.666667-10.666667-21.333333-14.933333-36.266666-14.933334z m81.066666-258.133333l-142.933333-142.933333c-12.8-10.666667-25.6-14.933333-38.4-14.933334-14.933333 0-25.6 4.266667-36.266667 14.933334l-145.066666 145.066666c-10.666667 10.666667-14.933333 23.466667-14.933334 36.266667 0 14.933333 4.266667 27.733333 14.933334 36.266667l142.933333 142.933333c10.666667 10.666667 23.466667 14.933333 38.4 14.933333s27.733333-4.266667 38.4-14.933333l145.066667-145.066667c10.666667-10.666667 14.933333-23.466667 14.933333-36.266666-2.133333-12.8-8.533333-25.6-17.066667-36.266667z" fill="#515151" p-id="17716"></path></svg>
