<?xml version="1.0" standalone="no"?><!DOCTYPE svg PUBLIC "-//W3C//DTD SVG 1.1//EN" "http://www.w3.org/Graphics/SVG/1.1/DTD/svg11.dtd"><svg t="1614003056652" class="icon" viewBox="0 0 1024 1024" version="1.1" xmlns="http://www.w3.org/2000/svg" p-id="11576" xmlns:xlink="http://www.w3.org/1999/xlink" width="22" height="22"><defs><style type="text/css"></style></defs><path d="M933.806379 812.926329A464.986599 464.986599 0 0 0 688.153081 565.656891a453.904496 453.904496 0 0 0-56.564904-19.855436 288.134695 288.134695 0 0 0 78.498234-461.754319 283.978906 283.978906 0 0 0-403.342398 0 287.903818 287.903818 0 0 0 78.498235 461.754319 451.364847 451.364847 0 0 0-56.795782 19.855436A464.755722 464.755722 0 0 0 46.545455 993.703145a23.087716 23.087716 0 1 0 43.86666 0 419.734676 419.734676 0 0 1 405.420292-420.427308h24.934733A419.734676 419.734676 0 0 1 926.187433 993.703145a23.087716 23.087716 0 1 0 43.86666 0 463.601336 463.601336 0 0 0-36.247714-180.776816zM267.033142 286.757282a241.266632 241.266632 0 1 1 253.964876 242.421018h-24.472979a242.421018 242.421018 0 0 1-229.030143-242.421018z" fill="#f5520d" p-id="11577"></path><path d="M600.650638 323.235873a23.087716 23.087716 0 0 1 46.175431 0 138.526296 138.526296 0 0 1-277.052591 0 23.087716 23.087716 0 1 1 46.175432 0 92.350864 92.350864 0 0 0 184.701728 0" fill="#f5520d" p-id="11578"></path></svg>